<?xml version="1.0" standalone="no"?>
<!DOCTYPE svg PUBLIC "-//W3C//DTD SVG 20010904//EN"
 "http://www.w3.org/TR/2001/REC-SVG-20010904/DTD/svg10.dtd">
<svg version="1.0" xmlns="http://www.w3.org/2000/svg"
 width="500.000000pt" height="214.000000pt" viewBox="0 0 500.000000 214.000000"
 preserveAspectRatio="xMidYMid meet">

<g transform="translate(0.000000,214.000000) scale(0.100000,-0.100000)"
fill="#000000" stroke="none">
<path d="M1443 1455 c-102 -26 -229 -87 -284 -137 -20 -18 -51 -55 -68 -82
-26 -42 -31 -60 -31 -113 0 -117 62 -189 241 -282 57 -29 119 -67 137 -85 l33
-31 -78 -26 c-95 -32 -143 -56 -247 -124 -120 -78 -176 -150 -176 -227 0 -78
101 -101 246 -57 88 27 146 60 213 123 90 85 123 174 97 259 -23 76 -71 125
-182 186 -204 112 -253 160 -254 249 0 57 28 110 91 166 131 117 385 185 545
145 100 -25 145 -157 53 -152 l-34 1 25 -13 c72 -41 114 9 74 88 -26 50 -52
79 -97 109 -38 25 -50 28 -127 27 -56 0 -117 -8 -177 -24z m55 -770 c19 -42
14 -84 -19 -145 -49 -93 -169 -177 -305 -215 -32 -9 -69 -21 -80 -27 -24 -11
-94 -1 -74 12 8 5 5 9 -9 13 -50 13 -8 92 95 177 36 30 76 64 87 75 12 11 27
20 33 21 7 1 59 27 116 58 57 30 112 56 124 56 13 0 25 -10 32 -25z m-74 -249
c-8 -20 -110 -89 -170 -114 -48 -20 -145 -41 -134 -29 3 3 48 19 100 36 101
34 116 42 169 90 39 35 43 37 35 17z"/>
<path d="M3062 1449 c-121 -60 -278 -238 -357 -405 -15 -32 -46 -115 -67 -184
-52 -167 -61 -292 -29 -399 59 -196 215 -234 394 -98 55 42 133 127 116 127
-7 0 -1 13 15 29 16 16 34 27 41 25 7 -3 32 18 55 45 40 47 45 50 61 35 15
-14 20 -14 46 -1 16 9 35 28 43 44 8 15 29 47 48 70 18 24 31 47 28 52 -3 4 3
16 13 25 18 17 20 17 31 -3 6 -12 17 -21 25 -21 12 0 15 -15 15 -72 0 -64 3
-75 27 -100 15 -15 36 -28 47 -28 11 0 43 24 71 53 l51 54 -12 -46 c-8 -31 -8
-50 -2 -58 22 -27 37 -10 64 70 34 104 53 130 114 159 27 13 49 26 50 31 0 13
-50 8 -81 -9 l-30 -15 3 38 c2 28 -1 38 -14 41 -20 4 -71 -101 -63 -129 4 -10
-3 -26 -17 -41 -13 -12 -30 -32 -38 -43 -16 -21 -36 -35 -88 -62 -29 -15 -34
-15 -43 -3 -10 14 -7 91 6 190 9 61 -11 90 -49 72 -16 -7 -28 -8 -31 -2 -4 6
-24 10 -45 10 -52 0 -94 -37 -139 -121 -18 -35 -40 -71 -47 -80 -17 -19 -18
-33 -3 -23 6 3 3 -5 -6 -20 -21 -32 -30 -34 -15 -3 6 12 -6 2 -27 -23 -119
-141 -251 -257 -331 -291 -62 -27 -140 -25 -183 4 -181 120 -50 678 222 947
113 112 244 181 288 153 18 -11 23 -109 8 -150 -7 -19 -5 -23 10 -23 31 0 43
21 43 77 0 73 -20 109 -68 122 -58 17 -84 13 -150 -20z m428 -587 c0 -15 -164
-205 -168 -194 -6 20 60 131 100 167 35 33 68 45 68 27z m57 -34 c-3 -7 -5 -2
-5 12 0 14 2 19 5 13 2 -7 2 -19 0 -25z m206 -103 c-3 -9 -8 -14 -10 -11 -3 3
-2 9 2 15 9 16 15 13 8 -4z m-537 -132 c-14 -15 -26 -31 -26 -35 0 -5 -5 -8
-10 -8 -6 0 4 18 21 40 18 22 34 38 37 36 2 -3 -8 -17 -22 -33z m-146 -153 c0
-5 -10 -15 -22 -21 -23 -12 -23 -12 -4 10 21 23 26 26 26 11z"/>
<path d="M1844 1178 c-41 -67 -151 -336 -185 -457 -10 -32 -22 -49 -46 -64
-27 -16 -31 -22 -22 -34 7 -7 19 -11 27 -8 11 4 13 -1 8 -22 -4 -16 -9 -55
-12 -89 -5 -49 -3 -63 11 -77 9 -10 21 -14 27 -11 7 4 7 9 0 13 -5 3 -9 34 -8
68 0 33 5 59 10 56 5 -4 6 6 2 21 -5 20 -4 26 5 20 9 -5 10 -1 7 14 -5 18 0
23 30 32 21 6 83 14 140 17 131 8 113 23 -27 23 l-104 0 54 42 c78 61 170 159
167 177 -7 33 -37 22 -72 -26 -35 -48 -140 -143 -158 -143 -6 0 -5 6 2 15 7 8
10 15 7 15 -3 0 -1 13 4 30 6 16 15 28 19 25 12 -7 23 32 14 46 -4 7 -3 9 4 6
6 -4 16 11 25 35 29 79 78 191 98 225 12 18 18 40 15 48 -7 18 -32 20 -42 3z
m-83 -265 c-12 -20 -14 -14 -5 12 4 9 9 14 11 11 3 -2 0 -13 -6 -23z"/>
<path d="M2107 924 c-14 -15 -6 -34 14 -34 14 0 19 5 17 17 -3 18 -20 27 -31
17z"/>
<path d="M4114 910 c-45 -18 -114 -128 -133 -211 -11 -50 5 -101 37 -118 67
-36 182 9 273 106 32 35 59 68 59 73 0 18 -18 10 -38 -15 -11 -14 -23 -25 -26
-25 -3 0 -32 -20 -63 -45 -125 -96 -230 -100 -207 -7 8 34 12 37 51 43 51 6
84 35 112 95 26 54 26 76 3 97 -20 19 -36 20 -68 7z m28 -87 c-21 -41 -56 -76
-84 -86 -25 -9 -22 6 13 62 56 92 116 112 71 24z"/>
<path d="M2292 887 c-5 -7 -23 -39 -40 -72 -42 -84 -182 -212 -206 -188 -13
13 -5 67 19 139 30 89 29 84 8 84 -43 0 -89 -160 -62 -212 16 -30 28 -38 64
-38 24 0 42 13 92 65 34 36 65 61 68 55 3 -5 -2 -32 -11 -59 -9 -28 -14 -58
-10 -66 10 -27 34 -16 41 18 16 75 66 174 110 217 l44 43 7 -27 c4 -15 2 -59
-5 -96 -13 -80 -14 -135 -1 -85 7 28 8 29 9 5 0 -15 -4 -31 -11 -38 -14 -14
16 -52 42 -52 24 0 61 32 84 71 14 24 15 30 4 22 -8 -7 -17 -11 -20 -8 -2 3
-17 -9 -33 -25 -42 -44 -59 -40 -51 13 3 23 9 78 12 122 6 68 4 84 -10 98 -24
23 -39 21 -75 -9 l-31 -26 0 25 c0 28 -23 42 -38 24z"/>
</g>
</svg>
